<svg width="112" height="31" viewBox="0 0 112 31" fill="none" xmlns="http://www.w3.org/2000/svg">
<path d="M9.65022 15.2373H5V24.3554H18.7683L9.65022 15.2373Z" fill="white"/>
<path d="M14.1181 15.2372L5 6.11914H18.6771V15.2372H14.1181Z" fill="white"/>
<path d="M26.3924 23V6.59522H32.8137C33.8292 6.59522 34.7198 6.76708 35.4853 7.1108C36.2665 7.45452 36.8758 7.95447 37.3133 8.61066C37.7664 9.25123 37.9929 10.0324 37.9929 10.9542V11.1886C37.9929 12.2978 37.7273 13.1728 37.1961 13.8133C36.6649 14.4383 36.04 14.8523 35.3213 15.0554V15.3366C35.8681 15.3522 36.329 15.5241 36.704 15.8522C37.0789 16.1803 37.2664 16.7037 37.2664 17.4224V23H35.7666V17.5864C35.7666 17.0865 35.6259 16.7037 35.3447 16.4381C35.0791 16.1725 34.6729 16.0397 34.1261 16.0397H27.8923V23H26.3924ZM27.8923 14.6804H32.6731C33.8917 14.6804 34.8291 14.3992 35.4853 13.8368C36.1571 13.2587 36.4931 12.4384 36.4931 11.376V11.2589C36.4931 10.1965 36.165 9.38403 35.5088 8.82158C34.8682 8.24351 33.923 7.95447 32.6731 7.95447H27.8923V14.6804ZM46.4732 23.3281C45.3015 23.3281 44.2781 23.0859 43.4032 22.6016C42.5439 22.1016 41.8721 21.4064 41.3878 20.5158C40.9034 19.6253 40.6613 18.602 40.6613 17.4458V17.1646C40.6613 15.9928 40.9034 14.9695 41.3878 14.0945C41.8721 13.204 42.5361 12.5166 43.3798 12.0322C44.2391 11.5323 45.2155 11.2823 46.3092 11.2823C47.3716 11.2823 48.309 11.5088 49.1214 11.9619C49.9495 12.3994 50.5979 13.04 51.0666 13.8836C51.5353 14.7117 51.7696 15.7038 51.7696 16.8599V17.6099H42.0674C42.1143 19.0316 42.5439 20.1331 43.3563 20.9142C44.1844 21.6798 45.2234 22.0626 46.4732 22.0626C47.5356 22.0626 48.3559 21.8204 48.934 21.3361C49.5277 20.8518 49.9807 20.2581 50.2932 19.555L51.5587 20.1174C51.3244 20.633 50.9963 21.1408 50.5744 21.6407C50.1682 22.1251 49.637 22.5313 48.9808 22.8594C48.3246 23.1719 47.4888 23.3281 46.4732 23.3281ZM42.0908 16.3912H50.3401C50.2776 15.157 49.8792 14.2117 49.1449 13.5555C48.4106 12.8837 47.4653 12.5478 46.3092 12.5478C45.1687 12.5478 44.2234 12.8837 43.4735 13.5555C42.7236 14.2117 42.2627 15.157 42.0908 16.3912ZM59.7531 23.3281C58.3782 23.3281 57.1986 23 56.2143 22.3438C55.2456 21.6876 54.652 20.6018 54.4332 19.0863L55.8159 18.8285C55.9409 19.6565 56.1909 20.3127 56.5658 20.7971C56.9564 21.2658 57.4251 21.6017 57.972 21.8048C58.5344 22.0079 59.1281 22.1095 59.7531 22.1095C60.6905 22.1095 61.4404 21.922 62.0029 21.547C62.5809 21.1564 62.87 20.6252 62.87 19.9534C62.87 19.266 62.5966 18.7894 62.0497 18.5238C61.5185 18.2582 60.8077 18.0473 59.9171 17.8911L58.8391 17.7036C58.1204 17.5786 57.472 17.3911 56.8939 17.1411C56.3159 16.8755 55.855 16.524 55.5112 16.0866C55.1832 15.6491 55.0191 15.1023 55.0191 14.4461C55.0191 13.4618 55.4019 12.6884 56.1674 12.126C56.9486 11.5635 57.9798 11.2823 59.2609 11.2823C60.5577 11.2823 61.5966 11.5791 62.3778 12.1728C63.1746 12.7509 63.6746 13.5946 63.8777 14.7039L62.5653 14.9851C62.4091 14.0789 62.0341 13.4384 61.4404 13.0634C60.8623 12.6884 60.1358 12.5009 59.2609 12.5009C58.4016 12.5009 57.7142 12.665 57.1986 12.9931C56.683 13.3212 56.4252 13.8055 56.4252 14.4461C56.4252 15.071 56.6596 15.5319 57.1283 15.8288C57.597 16.11 58.2376 16.3209 59.05 16.4615L60.128 16.649C60.9092 16.774 61.6123 16.9615 62.2372 17.2115C62.8622 17.4458 63.3543 17.7817 63.7136 18.2192C64.0886 18.6566 64.2761 19.2347 64.2761 19.9534C64.2761 21.0314 63.8699 21.8673 63.0574 22.461C62.245 23.0391 61.1436 23.3281 59.7531 23.3281ZM72.8141 23.3281C71.7048 23.3281 70.7127 23.0937 69.8378 22.625C68.9785 22.1407 68.2989 21.4533 67.7989 20.5627C67.299 19.6722 67.049 18.6254 67.049 17.4224V17.188C67.049 15.9694 67.299 14.9226 67.7989 14.0477C68.2989 13.1571 68.9785 12.4775 69.8378 12.0088C70.7127 11.5245 71.7048 11.2823 72.8141 11.2823C73.9077 11.2823 74.8295 11.4932 75.5795 11.9151C76.345 12.3213 76.9387 12.8603 77.3606 13.5321C77.798 14.1883 78.0714 14.8835 78.1808 15.6178L76.7981 15.8991C76.72 15.2898 76.5247 14.7351 76.2122 14.2352C75.8997 13.7196 75.4623 13.3134 74.8998 13.0165C74.3374 12.704 73.6421 12.5478 72.8141 12.5478C71.986 12.5478 71.2439 12.7431 70.5877 13.1337C69.9315 13.5087 69.4081 14.0477 69.0175 14.7507C68.6426 15.4382 68.4551 16.2584 68.4551 17.2115V17.3989C68.4551 18.352 68.6426 19.18 69.0175 19.8831C69.4081 20.5705 69.9315 21.1095 70.5877 21.5001C71.2439 21.8751 71.986 22.0626 72.8141 22.0626C74.064 22.0626 75.017 21.7423 75.6732 21.1017C76.3294 20.4455 76.7356 19.6487 76.8918 18.7113L78.2745 18.9925C78.1339 19.7269 77.8371 20.4299 77.384 21.1017C76.9465 21.7579 76.345 22.2969 75.5795 22.7188C74.8295 23.125 73.9077 23.3281 72.8141 23.3281ZM85.224 23.3281C84.4272 23.3281 83.7007 23.1953 83.0446 22.9297C82.404 22.6485 81.8962 22.2423 81.5213 21.7111C81.1463 21.1799 80.9588 20.5393 80.9588 19.7893C80.9588 19.0238 81.1463 18.391 81.5213 17.8911C81.8962 17.3911 82.404 17.0162 83.0446 16.7662C83.6851 16.5162 84.396 16.3912 85.1772 16.3912H89.3487V15.4772C89.3487 14.5554 89.0831 13.8368 88.5519 13.3212C88.0207 12.8056 87.2473 12.5478 86.2318 12.5478C85.2319 12.5478 84.4351 12.7978 83.8414 13.2977C83.2633 13.7821 82.8727 14.4383 82.6696 15.2663L81.3103 14.8679C81.4978 14.1961 81.7947 13.5946 82.2009 13.0634C82.6071 12.5166 83.1461 12.0869 83.8179 11.7744C84.4897 11.4463 85.2943 11.2823 86.2318 11.2823C87.6691 11.2823 88.7784 11.6573 89.5596 12.4072C90.3564 13.1571 90.7548 14.2039 90.7548 15.5475V21.0783C90.7548 21.547 90.9735 21.7814 91.411 21.7814H92.5125V23H91.0126C90.5283 23 90.1455 22.8594 89.8643 22.5782C89.583 22.2813 89.4424 21.8829 89.4424 21.383V21.2189H89.2081C89.005 21.5626 88.7394 21.8985 88.4113 22.2266C88.0988 22.5547 87.6848 22.8203 87.1692 23.0234C86.6536 23.2265 86.0052 23.3281 85.224 23.3281ZM85.3178 22.0626C86.5208 22.0626 87.4895 21.7032 88.2238 20.9846C88.9737 20.2502 89.3487 19.2191 89.3487 17.8911V17.6099H85.2006C84.3882 17.6099 83.7086 17.7895 83.1617 18.1489C82.6305 18.4926 82.3649 19.0316 82.3649 19.7659C82.3649 20.5002 82.6383 21.0705 83.1852 21.4767C83.7476 21.8673 84.4585 22.0626 85.3178 22.0626ZM95.1892 23V11.6104H96.5485V13.7196H96.8297C97.1109 13.1103 97.5718 12.5712 98.2124 12.1025C98.8529 11.6182 99.7826 11.376 101.001 11.376C101.829 11.376 102.587 11.5479 103.274 11.8916C103.962 12.2353 104.509 12.7587 104.915 13.4618C105.337 14.1492 105.548 15.0163 105.548 16.0631V23H104.142V16.1569C104.142 14.907 103.829 14.0086 103.204 13.4618C102.579 12.915 101.743 12.6416 100.697 12.6416C99.5248 12.6416 98.5483 13.0321 97.7671 13.8133C96.9859 14.5789 96.5953 15.7428 96.5953 17.3052V23H95.1892Z" fill="white"/>
<g filter="url(#filter0_f_426_11620)">
<path d="M9.65022 15.2373H5V24.3554H18.7683L9.65022 15.2373Z" fill="white" fill-opacity="0.2"/>
<path d="M14.1181 15.2372L5 6.11914H18.6771V15.2372H14.1181Z" fill="white" fill-opacity="0.2"/>
<path d="M26.441 24V7.2H33.017C34.057 7.2 34.969 7.376 35.753 7.728C36.553 8.08 37.177 8.592 37.625 9.264C38.089 9.92 38.321 10.72 38.321 11.664V11.904C38.321 13.04 38.049 13.936 37.505 14.592C36.961 15.232 36.321 15.656 35.585 15.864V16.152C36.145 16.168 36.617 16.344 37.001 16.68C37.385 17.016 37.577 17.552 37.577 18.288V24H36.041V18.456C36.041 17.944 35.897 17.552 35.609 17.28C35.337 17.008 34.921 16.872 34.361 16.872H27.977V24H26.441ZM27.977 15.48H32.873C34.121 15.48 35.081 15.192 35.753 14.616C36.441 14.024 36.785 13.184 36.785 12.096V11.976C36.785 10.888 36.449 10.056 35.777 9.48C35.121 8.888 34.153 8.592 32.873 8.592H27.977V15.48ZM47.0056 24.336C45.8056 24.336 44.7576 24.088 43.8616 23.592C42.9816 23.08 42.2936 22.368 41.7976 21.456C41.3016 20.544 41.0536 19.496 41.0536 18.312V18.024C41.0536 16.824 41.3016 15.776 41.7976 14.88C42.2936 13.968 42.9736 13.264 43.8376 12.768C44.7176 12.256 45.7176 12 46.8376 12C47.9256 12 48.8856 12.232 49.7176 12.696C50.5656 13.144 51.2296 13.8 51.7096 14.664C52.1896 15.512 52.4296 16.528 52.4296 17.712V18.48H42.4936C42.5416 19.936 42.9816 21.064 43.8136 21.864C44.6616 22.648 45.7256 23.04 47.0056 23.04C48.0936 23.04 48.9336 22.792 49.5256 22.296C50.1336 21.8 50.5976 21.192 50.9176 20.472L52.2136 21.048C51.9736 21.576 51.6376 22.096 51.2056 22.608C50.7896 23.104 50.2456 23.52 49.5736 23.856C48.9016 24.176 48.0456 24.336 47.0056 24.336ZM42.5176 17.232H50.9656C50.9016 15.968 50.4936 15 49.7416 14.328C48.9896 13.64 48.0216 13.296 46.8376 13.296C45.6696 13.296 44.7016 13.64 43.9336 14.328C43.1656 15 42.6936 15.968 42.5176 17.232ZM60.6053 24.336C59.1973 24.336 57.9893 24 56.9813 23.328C55.9893 22.656 55.3813 21.544 55.1573 19.992L56.5733 19.728C56.7013 20.576 56.9573 21.248 57.3413 21.744C57.7413 22.224 58.2213 22.568 58.7813 22.776C59.3573 22.984 59.9653 23.088 60.6053 23.088C61.5653 23.088 62.3333 22.896 62.9093 22.512C63.5013 22.112 63.7973 21.568 63.7973 20.88C63.7973 20.176 63.5173 19.688 62.9573 19.416C62.4133 19.144 61.6853 18.928 60.7733 18.768L59.6693 18.576C58.9333 18.448 58.2693 18.256 57.6773 18C57.0853 17.728 56.6133 17.368 56.2613 16.92C55.9253 16.472 55.7573 15.912 55.7573 15.24C55.7573 14.232 56.1493 13.44 56.9333 12.864C57.7333 12.288 58.7893 12 60.1013 12C61.4293 12 62.4933 12.304 63.2933 12.912C64.1093 13.504 64.6213 14.368 64.8293 15.504L63.4853 15.792C63.3253 14.864 62.9413 14.208 62.3333 13.824C61.7413 13.44 60.9973 13.248 60.1013 13.248C59.2213 13.248 58.5173 13.416 57.9893 13.752C57.4613 14.088 57.1973 14.584 57.1973 15.24C57.1973 15.88 57.4373 16.352 57.9173 16.656C58.3973 16.944 59.0533 17.16 59.8853 17.304L60.9893 17.496C61.7893 17.624 62.5093 17.816 63.1493 18.072C63.7893 18.312 64.2933 18.656 64.6613 19.104C65.0453 19.552 65.2373 20.144 65.2373 20.88C65.2373 21.984 64.8213 22.84 63.9893 23.448C63.1573 24.04 62.0293 24.336 60.6053 24.336ZM73.981 24.336C72.845 24.336 71.829 24.096 70.933 23.616C70.053 23.12 69.357 22.416 68.845 21.504C68.333 20.592 68.077 19.52 68.077 18.288V18.048C68.077 16.8 68.333 15.728 68.845 14.832C69.357 13.92 70.053 13.224 70.933 12.744C71.829 12.248 72.845 12 73.981 12C75.101 12 76.045 12.216 76.813 12.648C77.597 13.064 78.205 13.616 78.637 14.304C79.085 14.976 79.365 15.688 79.477 16.44L78.061 16.728C77.981 16.104 77.781 15.536 77.461 15.024C77.141 14.496 76.693 14.08 76.117 13.776C75.541 13.456 74.829 13.296 73.981 13.296C73.133 13.296 72.373 13.496 71.701 13.896C71.029 14.28 70.493 14.832 70.093 15.552C69.709 16.256 69.517 17.096 69.517 18.072V18.264C69.517 19.24 69.709 20.088 70.093 20.808C70.493 21.512 71.029 22.064 71.701 22.464C72.373 22.848 73.133 23.04 73.981 23.04C75.261 23.04 76.237 22.712 76.909 22.056C77.581 21.384 77.997 20.568 78.157 19.608L79.573 19.896C79.429 20.648 79.125 21.368 78.661 22.056C78.213 22.728 77.597 23.28 76.813 23.712C76.045 24.128 75.101 24.336 73.981 24.336ZM86.69 24.336C85.874 24.336 85.13 24.2 84.458 23.928C83.802 23.64 83.282 23.224 82.898 22.68C82.514 22.136 82.322 21.48 82.322 20.712C82.322 19.928 82.514 19.28 82.898 18.768C83.282 18.256 83.802 17.872 84.458 17.616C85.114 17.36 85.842 17.232 86.642 17.232H90.914V16.296C90.914 15.352 90.642 14.616 90.098 14.088C89.554 13.56 88.762 13.296 87.722 13.296C86.698 13.296 85.882 13.552 85.274 14.064C84.682 14.56 84.282 15.232 84.074 16.08L82.682 15.672C82.874 14.984 83.178 14.368 83.594 13.824C84.01 13.264 84.562 12.824 85.25 12.504C85.938 12.168 86.762 12 87.722 12C89.194 12 90.33 12.384 91.13 13.152C91.946 13.92 92.354 14.992 92.354 16.368V22.032C92.354 22.512 92.578 22.752 93.026 22.752H94.154V24H92.618C92.122 24 91.73 23.856 91.442 23.568C91.154 23.264 91.01 22.856 91.01 22.344V22.176H90.77C90.562 22.528 90.29 22.872 89.954 23.208C89.634 23.544 89.21 23.816 88.682 24.024C88.154 24.232 87.49 24.336 86.69 24.336ZM86.786 23.04C88.018 23.04 89.01 22.672 89.762 21.936C90.53 21.184 90.914 20.128 90.914 18.768V18.48H86.666C85.834 18.48 85.138 18.664 84.578 19.032C84.034 19.384 83.762 19.936 83.762 20.688C83.762 21.44 84.042 22.024 84.602 22.44C85.178 22.84 85.906 23.04 86.786 23.04ZM96.8952 24V12.336H98.2872V14.496H98.5752C98.8632 13.872 99.3352 13.32 99.9912 12.84C100.647 12.344 101.599 12.096 102.847 12.096C103.695 12.096 104.471 12.272 105.175 12.624C105.879 12.976 106.439 13.512 106.855 14.232C107.287 14.936 107.503 15.824 107.503 16.896V24H106.063V16.992C106.063 15.712 105.743 14.792 105.103 14.232C104.463 13.672 103.607 13.392 102.535 13.392C101.335 13.392 100.335 13.792 99.5352 14.592C98.7352 15.376 98.3352 16.568 98.3352 18.168V24H96.8952Z" fill="white" fill-opacity="0.2"/>
</g>
<defs>
<filter id="filter0_f_426_11620" x="0.971498" y="2.09064" width="110.561" height="26.2933" filterUnits="userSpaceOnUse" color-interpolation-filters="sRGB">
<feFlood flood-opacity="0" result="BackgroundImageFix"/>
<feBlend mode="normal" in="SourceGraphic" in2="BackgroundImageFix" result="shape"/>
<feGaussianBlur stdDeviation="2.01425" result="effect1_foregroundBlur_426_11620"/>
</filter>
</defs>
</svg>
